<mxfile host="app.diagrams.net" modified="2021-04-05T12:29:24.212Z" agent="5.0 (Macintosh; Intel Mac OS X 10_15_7) AppleWebKit/537.36 (KHTML, like Gecko) Chrome/89.0.4389.90 Safari/537.36 Edg/89.0.774.63" etag="G4R4-eWWVfYY82p_kUHD" version="14.5.3" type="github">
  <diagram id="j0nWerrw2Snicfc2US4N" name="Page-1">
    <mxGraphModel dx="1554" dy="907" grid="1" gridSize="10" guides="1" tooltips="1" connect="1" arrows="1" fold="1" page="1" pageScale="1" pageWidth="850" pageHeight="1100" math="0" shadow="0">
      <root>
        <mxCell id="0" />
        <mxCell id="1" parent="0" />
        <mxCell id="zGtckxlxDOLURkBdo12I-1" value="&lt;b&gt;Nexus Standards&lt;/b&gt;&lt;br&gt;&lt;br&gt;Prettier&lt;br&gt;&lt;br&gt;Husky&lt;br&gt;&lt;br&gt;Unit Test&lt;br&gt;&lt;br&gt;E2E Test&lt;br&gt;&lt;br&gt;Coverage&lt;br&gt;&lt;br&gt;Conventional Commits&lt;br&gt;&lt;br&gt;Semantic Versioning&lt;br&gt;&lt;br&gt;Nexus Pipeline&lt;br&gt;&lt;br&gt;Nexus Artifacts&lt;br&gt;&lt;br&gt;Nexus Velocity" style="rounded=1;whiteSpace=wrap;html=1;fillColor=#FFE600;fontFamily=Tahoma;verticalAlign=top;spacingLeft=2;spacingRight=2;" vertex="1" parent="1">
          <mxGeometry x="10" y="20" width="120" height="400" as="geometry" />
        </mxCell>
        <mxCell id="zGtckxlxDOLURkBdo12I-2" value="&lt;b&gt;UI Views&lt;/b&gt;&lt;br&gt;&lt;br&gt;" style="rounded=1;whiteSpace=wrap;html=1;verticalAlign=top;fontColor=#FFFFFF;fontFamily=Tahoma;fillColor=#666666;" vertex="1" parent="1">
          <mxGeometry x="130" y="20" width="120" height="120" as="geometry" />
        </mxCell>
        <mxCell id="zGtckxlxDOLURkBdo12I-3" value="&lt;b&gt;Community Starter Project&lt;br&gt;&lt;/b&gt;&lt;br&gt;Standard Project Assets" style="rounded=1;whiteSpace=wrap;html=1;verticalAlign=top;strokeColor=#0D0D0D;fontColor=#FFFFFF;fillColor=#4D4D4D;fontFamily=Tahoma;" vertex="1" parent="1">
          <mxGeometry x="130" y="260" width="480" height="100" as="geometry" />
        </mxCell>
        <mxCell id="zGtckxlxDOLURkBdo12I-4" value="&lt;b&gt;Nexus Cookbooks &amp;amp; Recipes&lt;/b&gt;&lt;br&gt;&lt;br&gt;@nexus/core" style="rounded=1;whiteSpace=wrap;html=1;verticalAlign=top;strokeColor=#030201;fillColor=#FFC400;fontFamily=Tahoma;" vertex="1" parent="1">
          <mxGeometry x="130" y="140" width="480" height="60" as="geometry" />
        </mxCell>
        <mxCell id="zGtckxlxDOLURkBdo12I-5" value="Angular CLI" style="rounded=1;whiteSpace=wrap;html=1;fontStyle=1;fillColor=#FF0000;fontColor=#FFFFFF;fontFamily=Tahoma;" vertex="1" parent="1">
          <mxGeometry x="130" y="318" width="120" height="30" as="geometry" />
        </mxCell>
        <mxCell id="zGtckxlxDOLURkBdo12I-6" value="Create React App" style="rounded=1;whiteSpace=wrap;html=1;fontStyle=1;fillColor=#007FFF;fontColor=#FFFFFF;fontFamily=Tahoma;" vertex="1" parent="1">
          <mxGeometry x="250" y="318" width="120" height="30" as="geometry" />
        </mxCell>
        <mxCell id="zGtckxlxDOLURkBdo12I-7" value="Vue CLI" style="rounded=1;whiteSpace=wrap;html=1;fillColor=#00CC00;strokeColor=#040503;fontColor=#FFFFFF;fontStyle=1;fontFamily=Tahoma;" vertex="1" parent="1">
          <mxGeometry x="370" y="318" width="120" height="30" as="geometry" />
        </mxCell>
        <mxCell id="zGtckxlxDOLURkBdo12I-8" value="Ionic CLI" style="rounded=1;whiteSpace=wrap;html=1;strokeColor=#030303;fontColor=#FFFFFF;fontStyle=1;fontFamily=Tahoma;fillColor=#7F00FF;" vertex="1" parent="1">
          <mxGeometry x="490" y="318" width="120" height="30" as="geometry" />
        </mxCell>
        <mxCell id="zGtckxlxDOLURkBdo12I-9" value="&lt;b&gt;Nexus UI Lib&lt;/b&gt;&lt;br&gt;&lt;br&gt;@nexus/angular&lt;br&gt;@nexus/react&lt;br&gt;@nexus/vue" style="rounded=1;whiteSpace=wrap;html=1;verticalAlign=top;fillColor=#FFC400;fontFamily=Tahoma;" vertex="1" parent="1">
          <mxGeometry x="140" y="50" width="100" height="80" as="geometry" />
        </mxCell>
        <mxCell id="zGtckxlxDOLURkBdo12I-10" value="&lt;b&gt;State &lt;br&gt;Management&lt;br&gt;&lt;/b&gt;&lt;br&gt;Redux&lt;br&gt;NGRX" style="rounded=1;whiteSpace=wrap;html=1;verticalAlign=top;fontColor=#FFFFFF;fontFamily=Tahoma;fillColor=#999999;" vertex="1" parent="1">
          <mxGeometry x="370" y="20" width="120" height="120" as="geometry" />
        </mxCell>
        <mxCell id="zGtckxlxDOLURkBdo12I-11" value="&lt;b&gt;Reactive Programming&lt;/b&gt;&lt;br&gt;&lt;br&gt;RxJS" style="rounded=1;whiteSpace=wrap;html=1;verticalAlign=top;fontColor=#FFFFFF;fontFamily=Tahoma;fillColor=#808080;" vertex="1" parent="1">
          <mxGeometry x="250" y="20" width="120" height="120" as="geometry" />
        </mxCell>
        <mxCell id="zGtckxlxDOLURkBdo12I-12" value="&lt;b&gt;Nexus Tooling&lt;/b&gt;&lt;br&gt;&lt;br&gt;@nexus/cli" style="rounded=1;whiteSpace=wrap;html=1;fillColor=#ffe600;fontFamily=Tahoma;" vertex="1" parent="1">
          <mxGeometry x="10" y="360" width="600" height="60" as="geometry" />
        </mxCell>
        <mxCell id="zGtckxlxDOLURkBdo12I-13" value="&lt;b&gt;Nexus Use Case Template&lt;br&gt;&lt;/b&gt;&lt;br&gt;*Overwrite Project Assets with Nexus Assets*" style="rounded=1;whiteSpace=wrap;html=1;verticalAlign=top;fillColor=#FFC400;fontFamily=Tahoma;" vertex="1" parent="1">
          <mxGeometry x="130" y="200" width="480" height="60" as="geometry" />
        </mxCell>
        <mxCell id="zGtckxlxDOLURkBdo12I-14" value="&lt;b&gt;Nexus API Model/Service&lt;/b&gt;&lt;br&gt;@nexus/api-ms-*" style="rounded=1;whiteSpace=wrap;html=1;verticalAlign=top;fillColor=#FFC400;fontFamily=Tahoma;" vertex="1" parent="1">
          <mxGeometry x="490" y="20" width="120" height="60" as="geometry" />
        </mxCell>
        <mxCell id="zGtckxlxDOLURkBdo12I-15" value="&lt;b&gt;Nexus API Model/Service&lt;/b&gt;&lt;br&gt;@nexus/api-ms-*" style="rounded=1;whiteSpace=wrap;html=1;verticalAlign=top;fillColor=#FFC400;fontFamily=Tahoma;" vertex="1" parent="1">
          <mxGeometry x="490" y="80" width="120" height="60" as="geometry" />
        </mxCell>
      </root>
    </mxGraphModel>
  </diagram>
</mxfile>
